<svg xmlns="http://www.w3.org/2000/svg" xmlns:xlink="http://www.w3.org/1999/xlink" version="1.1" x="0px" y="0px" viewBox="0 0 100 125" style="enable-background:new 0 0 100 100;" xml:space="preserve"><style type="text/css">
	.st0{fill:#010202;}
</style>
	<g>
		<rect x="7.5" y="27.5" class="st0" width="7.5" height="10"/>
		<rect x="7.5" y="45" class="st0" width="7.5" height="10"/>
		<rect x="27.5" y="7.5" class="st0" width="10" height="7.5"/>
		<path class="st0" d="M7.5,15v5H15v-5h5V7.5h-5C10.9,7.5,7.5,10.9,7.5,15z"/>
		<path class="st0" d="M15,62.5H7.5v5c0,4.1,3.4,7.5,7.5,7.5h5v-7.5h-5V62.5z"/>
		<rect x="45" y="7.5" class="st0" width="10" height="7.5"/>
		<path class="st0" d="M75,20v-5c0-4.1-3.4-7.5-7.5-7.5h-5V15h5v5H75z"/>
		<path class="st0" d="M85,25H32.5c-4.1,0-7.5,3.4-7.5,7.5V85c0,4.1,3.4,7.5,7.5,7.5H85c4.1,0,7.5-3.4,7.5-7.5V32.5   C92.5,28.4,89.1,25,85,25z M85,85H32.5V32.5H85V85z"/>
	</g>
</svg>