<svg xmlns="http://www.w3.org/2000/svg" xmlns:xlink="http://www.w3.org/1999/xlink" version="1.1" x="0px" y="0px" viewBox="0 0 256 320" enable-background="new 0 0 256 256" xml:space="preserve"><g><rect x="116" y="117" width="10" height="10"/><rect x="135" y="117" width="10" height="10"/><rect x="154" y="117" width="10" height="10"/><rect x="173" y="117" width="10" height="10"/><rect x="192" y="117" width="10" height="10"/><rect x="211" y="117" width="10" height="10"/><rect x="135" y="212" width="10" height="10"/><rect x="154" y="212" width="10" height="10"/><rect x="173" y="212" width="10" height="10"/><rect x="192" y="212" width="10" height="10"/><rect x="211" y="212" width="10" height="10"/><rect x="116" y="136" width="10" height="10"/><rect x="116" y="155" width="10" height="10"/><rect x="116" y="174" width="10" height="10"/><rect x="116" y="193" width="10" height="10"/><rect x="116" y="212" width="10" height="10"/><rect x="211" y="136" width="10" height="10"/><rect x="211" y="155" width="10" height="10"/><rect x="211" y="174" width="10" height="10"/><rect x="211" y="193" width="10" height="10"/><path d="M208.206,67.334c-0.496,0-1.096,0.307-1.733,0.969l-9.311,9.67l-37.443-36.93c-5.038-4.847-11.526-7.259-18.005-7.259   c-6.815,0-13.619,2.664-18.717,7.963c-5.806,6.033-8.098,13.897-6.96,21.585L119.005,60h0.001c0,0,0.001,0.246,0.003,0.244   c3.11-3.231,7.263-4.735,11.42-4.735c3.954,0,7.911,1.531,10.984,4.489c0.024,0.024,32.007,31.725,37.444,36.958l-11.396,11.941   c-1.602,1.663-1.044,3.102,1.229,3.102c0.023,0,0.047,0,0.07,0l37.628-0.535c2.332-0.028,4.189-2,4.129-4.332l-0.994-37.638   C209.487,68.083,208.969,67.334,208.206,67.334z"/><path d="M84,85h74.322c-2.709-2-5.477-5-8.097-8H140v-9.897c-1.126-1.114-2.039-2.019-2.657-2.63l-0.113-0.112   c-1.456-1.392-3.274-2.28-5.23-2.594V77H76v56H43V45h70.225c1.411-3,3.232-5.329,5.448-7.632c0.122-0.126,0.249-0.368,0.372-0.368   H35v104h41v41h40v-8H84V85z"/></g></svg>