<svg xmlns="http://www.w3.org/2000/svg" xmlns:xlink="http://www.w3.org/1999/xlink" version="1.1" x="0px" y="0px" viewBox="0 0 100 125" style="enable-background:new 0 0 100 100;" xml:space="preserve"><style type="text/css">
	.st0{fill:#010202;}
</style><g><rect x="85" y="45" class="st0" width="7.5" height="10"/><path class="st0" d="M85,85h-5v7.5h5c4.1,0,7.5-3.4,7.5-7.5v-5H85V85z"/><rect x="45" y="85" class="st0" width="10" height="7.5"/><rect x="62.5" y="85" class="st0" width="10" height="7.5"/><rect x="85" y="62.5" class="st0" width="7.5" height="10"/><path class="st0" d="M85,25h-5v7.5h5v5h7.5v-5C92.5,28.4,89.1,25,85,25z"/><path class="st0" d="M32.5,80H25v5c0,4.1,3.4,7.5,7.5,7.5h5V85h-5V80z"/><path class="st0" d="M67.5,7.5H15c-4.1,0-7.5,3.4-7.5,7.5v52.5c0,4.1,3.4,7.5,7.5,7.5h52.5c4.1,0,7.5-3.4,7.5-7.5V15   C75,10.9,71.6,7.5,67.5,7.5z M67.5,25h-5v7.5h5v35h-35v-5H25v5H15V15h52.5V25z"/><rect x="45" y="25" class="st0" width="10" height="7.5"/><rect x="25" y="45" class="st0" width="7.5" height="10"/><path class="st0" d="M32.5,32.5h5V25h-5c-4.1,0-7.5,3.4-7.5,7.5v5h7.5V32.5z"/></g></svg>